<?xml version="1.0" standalone="no"?><!DOCTYPE svg PUBLIC "-//W3C//DTD SVG 1.1//EN" "http://www.w3.org/Graphics/SVG/1.1/DTD/svg11.dtd"><svg t="1493366264174" class="icon" style="" viewBox="0 0 1024 1024" version="1.1" xmlns="http://www.w3.org/2000/svg" p-id="4280" xmlns:xlink="http://www.w3.org/1999/xlink" width="200" height="200"><defs><style type="text/css"></style></defs><path d="M128 768V256a64 64 0 0 1 64-64h448V128H192a128 128 0 0 0-128 128v512a128 128 0 0 0 128 128h448v-64H192a64 64 0 0 1-64-64z" fill="#bfbfbf" p-id="4281"></path><path d="M957.76 523.008c1.28-3.456 2.24-7.104 2.24-11.008s-0.96-7.552-2.24-11.008l2.112-2.112-8.768-8.768-1.28-1.216-191.36-191.424a31.936 31.936 0 0 0-45.056 45.056l137.6 137.472H480a32 32 0 0 0 0 64h371.008l-137.536 137.472a31.936 31.936 0 0 0 45.056 45.056l191.36-191.424 1.28-1.216 8.768-8.768-2.176-2.112z" fill="#bfbfbf" p-id="4282"></path></svg>